<svg width="41" height="37" viewBox="0 0 41 37" fill="none" xmlns="http://www.w3.org/2000/svg">
<path d="M26.1998 37C25.5521 36.9738 24.9404 36.6948 24.4961 36.2227C24.0518 35.7506 23.8103 35.1232 23.8234 34.475C23.8365 33.8269 24.1032 33.2097 24.5662 32.7559C25.0292 32.3022 25.6516 32.048 26.2999 32.048C26.9482 32.048 27.5706 32.3022 28.0336 32.7559C28.4966 33.2097 28.7633 33.8269 28.7764 34.475C28.7895 35.1232 28.5479 35.7506 28.1036 36.2227C27.6593 36.6948 27.0477 36.9738 26.3999 37H26.1998ZM6.75183 34.32C6.75183 33.79 6.90901 33.2718 7.20349 32.8311C7.49797 32.3904 7.91654 32.0469 8.40625 31.844C8.89596 31.6412 9.43484 31.5881 9.95471 31.6915C10.4746 31.7949 10.9521 32.0502 11.3269 32.425C11.7017 32.7998 11.957 33.2773 12.0604 33.7972C12.1638 34.317 12.1107 34.8559 11.9078 35.3456C11.705 35.8353 11.3615 36.2539 10.9208 36.5483C10.4801 36.8428 9.96194 37 9.43188 37C9.07977 37.0003 8.73102 36.9311 8.40564 36.7966C8.08026 36.662 7.7846 36.4646 7.53552 36.2158C7.28645 35.9669 7.08891 35.6713 6.9541 35.3461C6.81929 35.0208 6.74988 34.6721 6.74988 34.32H6.75183ZM10.5519 28.686C10.2924 28.6868 10.0398 28.6024 9.83301 28.4457C9.62617 28.2891 9.47648 28.0689 9.40686 27.819L4.57385 10.364H1.18091C0.867422 10.364 0.566761 10.2395 0.345093 10.0178C0.123425 9.79614 -0.00109863 9.49549 -0.00109863 9.18201C-0.00109863 8.86852 0.123425 8.56787 0.345093 8.3462C0.566761 8.12454 0.867422 8.00001 1.18091 8.00001H5.46191C5.7214 7.99919 5.97394 8.08372 6.18066 8.24057C6.38739 8.39742 6.53674 8.61788 6.60583 8.86801L11.4388 26.323H24.6168L28.9999 16.275H14.3999C14.2417 16.2796 14.0843 16.2524 13.9368 16.1951C13.7893 16.1377 13.6548 16.0513 13.5413 15.9411C13.4277 15.8308 13.3375 15.6989 13.2759 15.5532C13.2143 15.4074 13.1825 15.2508 13.1825 15.0925C13.1825 14.9343 13.2143 14.7776 13.2759 14.6319C13.3375 14.4861 13.4277 14.3542 13.5413 14.2439C13.6548 14.1337 13.7893 14.0473 13.9368 13.9899C14.0843 13.9326 14.2417 13.9054 14.3999 13.91H30.8129C31.0086 13.91 31.2011 13.9587 31.3733 14.0517C31.5454 14.1448 31.6917 14.2793 31.7988 14.443C31.9067 14.6073 31.9723 14.7957 31.9897 14.9914C32.0072 15.1872 31.976 15.3842 31.8989 15.565L26.4939 27.977C26.4015 28.1876 26.2499 28.3668 26.0574 28.4927C25.8649 28.6186 25.6399 28.6858 25.4099 28.686H10.5519Z" fill="#E8E8E8"/>
<path d="M31.4999 19C36.7466 19 40.9999 14.7467 40.9999 9.5C40.9999 4.25329 36.7466 0 31.4999 0C26.2532 0 21.9999 4.25329 21.9999 9.5C21.9999 14.7467 26.2532 19 31.4999 19Z" fill="#F16D7F"/>
<path d="M30.8119 7.648C31.2599 7.552 31.6719 7.504 32.0479 7.504C32.4959 7.504 32.8919 7.57 33.2359 7.702C33.5799 7.834 33.8659 8.016 34.0939 8.248C34.3259 8.48 34.4999 8.754 34.6159 9.07C34.7359 9.386 34.7959 9.73 34.7959 10.102C34.7959 10.558 34.7159 10.97 34.5559 11.338C34.3999 11.706 34.1819 12.022 33.9019 12.286C33.6259 12.546 33.2999 12.746 32.9239 12.886C32.5479 13.026 32.1419 13.096 31.7059 13.096C31.4539 13.096 31.2119 13.07 30.9799 13.018C30.7479 12.97 30.5299 12.904 30.3259 12.82C30.1259 12.736 29.9399 12.64 29.7679 12.532C29.5959 12.424 29.4439 12.31 29.3119 12.19L29.6419 11.734C29.7139 11.63 29.8079 11.578 29.9239 11.578C30.0039 11.578 30.0939 11.61 30.1939 11.674C30.2939 11.734 30.4159 11.802 30.5599 11.878C30.7039 11.954 30.8719 12.024 31.0639 12.088C31.2599 12.148 31.4919 12.178 31.7599 12.178C32.0599 12.178 32.3299 12.13 32.5699 12.034C32.8099 11.938 33.0159 11.802 33.1879 11.626C33.3599 11.446 33.4919 11.232 33.5839 10.984C33.6759 10.736 33.7219 10.458 33.7219 10.15C33.7219 9.882 33.6819 9.64 33.6019 9.424C33.5259 9.208 33.4079 9.024 33.2479 8.872C33.0919 8.72 32.8959 8.602 32.6599 8.518C32.4239 8.434 32.1479 8.392 31.8319 8.392C31.6159 8.392 31.3899 8.41 31.1539 8.446C30.9219 8.482 30.6839 8.54 30.4399 8.62L29.7679 8.422L30.4579 4.402H34.5319V4.87C34.5319 5.022 34.4839 5.148 34.3879 5.248C34.2959 5.344 34.1359 5.392 33.9079 5.392H31.2079L30.8119 7.648Z" fill="white"/>
</svg>
