<svg width="100" height="49" viewBox="0 0 100 49" fill="none" xmlns="http://www.w3.org/2000/svg">
<path d="M0 0H77.8846C83.75 0 89.3751 2.58127 93.5225 7.17591C97.67 11.7706 100 18.0022 100 24.5C100 30.9978 97.67 37.2294 93.5225 41.8241C89.3751 46.4187 83.75 49 77.8846 49H0V0Z" fill="#F16D7F"/>
<path d="M27.1415 21.537C27.0995 21.607 27.0528 21.6607 27.0015 21.698C26.9548 21.7307 26.8965 21.747 26.8265 21.747C26.7472 21.747 26.6538 21.7073 26.5465 21.628C26.4392 21.5487 26.3038 21.4623 26.1405 21.369C25.9818 21.271 25.7882 21.1823 25.5595 21.103C25.3355 21.0237 25.0625 20.984 24.7405 20.984C24.4372 20.984 24.1688 21.026 23.9355 21.11C23.7068 21.1893 23.5132 21.299 23.3545 21.439C23.2005 21.579 23.0838 21.7447 23.0045 21.936C22.9252 22.1227 22.8855 22.3257 22.8855 22.545C22.8855 22.825 22.9532 23.0583 23.0885 23.245C23.2285 23.427 23.4105 23.5833 23.6345 23.714C23.8632 23.8447 24.1198 23.959 24.4045 24.057C24.6938 24.1503 24.9878 24.2483 25.2865 24.351C25.5898 24.4537 25.8838 24.5703 26.1685 24.701C26.4578 24.827 26.7145 24.988 26.9385 25.184C27.1672 25.38 27.3492 25.6203 27.4845 25.905C27.6245 26.1897 27.6945 26.5397 27.6945 26.955C27.6945 27.3937 27.6198 27.8067 27.4705 28.194C27.3212 28.5767 27.1018 28.9103 26.8125 29.195C26.5278 29.4797 26.1755 29.7037 25.7555 29.867C25.3402 30.0303 24.8665 30.112 24.3345 30.112C23.6812 30.112 23.0885 29.9953 22.5565 29.762C22.0245 29.524 21.5695 29.2043 21.1915 28.803L21.5835 28.159C21.6208 28.1077 21.6652 28.0657 21.7165 28.033C21.7725 27.9957 21.8332 27.977 21.8985 27.977C21.9592 27.977 22.0268 28.0027 22.1015 28.054C22.1808 28.1007 22.2695 28.1613 22.3675 28.236C22.4655 28.3107 22.5775 28.3923 22.7035 28.481C22.8295 28.5697 22.9718 28.6513 23.1305 28.726C23.2938 28.8007 23.4782 28.8637 23.6835 28.915C23.8888 28.9617 24.1198 28.985 24.3765 28.985C24.6985 28.985 24.9855 28.9407 25.2375 28.852C25.4895 28.7633 25.7018 28.6397 25.8745 28.481C26.0518 28.3177 26.1872 28.124 26.2805 27.9C26.3738 27.676 26.4205 27.4263 26.4205 27.151C26.4205 26.8477 26.3505 26.6003 26.2105 26.409C26.0752 26.213 25.8955 26.0497 25.6715 25.919C25.4475 25.7883 25.1908 25.6787 24.9015 25.59C24.6122 25.4967 24.3182 25.4033 24.0195 25.31C23.7208 25.212 23.4268 25.1 23.1375 24.974C22.8482 24.848 22.5915 24.6847 22.3675 24.484C22.1435 24.2833 21.9615 24.0337 21.8215 23.735C21.6862 23.4317 21.6185 23.0583 21.6185 22.615C21.6185 22.2603 21.6862 21.9173 21.8215 21.586C21.9615 21.2547 22.1622 20.9607 22.4235 20.704C22.6895 20.4473 23.0138 20.242 23.3965 20.088C23.7838 19.934 24.2272 19.857 24.7265 19.857C25.2865 19.857 25.7952 19.9457 26.2525 20.123C26.7145 20.3003 27.1205 20.557 27.4705 20.893L27.1415 21.537ZM35.0123 22.909V30H34.2703C34.093 30 33.981 29.9137 33.9343 29.741L33.8363 28.978C33.5283 29.3187 33.183 29.594 32.8003 29.804C32.4177 30.0093 31.979 30.112 31.4843 30.112C31.097 30.112 30.754 30.049 30.4553 29.923C30.1613 29.7923 29.914 29.6103 29.7133 29.377C29.5127 29.1437 29.361 28.8613 29.2583 28.53C29.1603 28.1987 29.1113 27.8323 29.1113 27.431V22.909H30.3573V27.431C30.3573 27.9677 30.4787 28.383 30.7213 28.677C30.9687 28.971 31.3443 29.118 31.8483 29.118C32.217 29.118 32.56 29.0317 32.8773 28.859C33.1993 28.6817 33.4957 28.439 33.7663 28.131V22.909H35.0123ZM38.241 28.292C38.4696 28.6 38.7193 28.817 38.99 28.943C39.2653 29.069 39.5663 29.132 39.893 29.132C40.5603 29.132 41.0713 28.8963 41.426 28.425C41.7806 27.9537 41.958 27.2513 41.958 26.318C41.958 25.45 41.7993 24.813 41.482 24.407C41.1693 23.9963 40.7213 23.791 40.138 23.791C39.732 23.791 39.3773 23.8843 39.074 24.071C38.7753 24.2577 38.4976 24.5213 38.241 24.862V28.292ZM38.241 23.931C38.5396 23.5857 38.8756 23.3103 39.249 23.105C39.627 22.8997 40.061 22.797 40.551 22.797C40.9663 22.797 41.3396 22.8763 41.671 23.035C42.007 23.1937 42.2916 23.4247 42.525 23.728C42.7583 24.0267 42.9356 24.3907 43.057 24.82C43.183 25.2493 43.246 25.7323 43.246 26.269C43.246 26.843 43.176 27.3657 43.036 27.837C42.896 28.3083 42.693 28.712 42.427 29.048C42.1656 29.3793 41.846 29.6383 41.468 29.825C41.09 30.007 40.6653 30.098 40.194 30.098C39.7273 30.098 39.333 30.0117 39.011 29.839C38.6936 29.6617 38.416 29.412 38.178 29.09L38.115 29.734C38.0776 29.9113 37.9703 30 37.793 30H36.988V19.689H38.241V23.931ZM48.952 24.078C48.896 24.1807 48.8096 24.232 48.693 24.232C48.623 24.232 48.5436 24.2063 48.455 24.155C48.3663 24.1037 48.2566 24.0477 48.126 23.987C48 23.9217 47.8483 23.8633 47.671 23.812C47.4936 23.756 47.2836 23.728 47.041 23.728C46.831 23.728 46.642 23.756 46.474 23.812C46.306 23.8633 46.1613 23.9357 46.04 24.029C45.9233 24.1223 45.8323 24.232 45.767 24.358C45.7063 24.4793 45.676 24.6123 45.676 24.757C45.676 24.939 45.7273 25.0907 45.83 25.212C45.9373 25.3333 46.0773 25.4383 46.25 25.527C46.4226 25.6157 46.6186 25.695 46.838 25.765C47.0573 25.8303 47.2813 25.9027 47.51 25.982C47.7433 26.0567 47.9696 26.1407 48.189 26.234C48.4083 26.3273 48.6043 26.444 48.777 26.584C48.9496 26.724 49.0873 26.8967 49.19 27.102C49.2973 27.3027 49.351 27.5453 49.351 27.83C49.351 28.1567 49.2926 28.46 49.176 28.74C49.0593 29.0153 48.8866 29.2557 48.658 29.461C48.4293 29.6617 48.1493 29.8203 47.818 29.937C47.4866 30.0537 47.104 30.112 46.67 30.112C46.1753 30.112 45.7273 30.0327 45.326 29.874C44.9246 29.7107 44.584 29.503 44.304 29.251L44.598 28.775C44.6353 28.7143 44.6796 28.6677 44.731 28.635C44.7823 28.6023 44.8476 28.586 44.927 28.586C45.011 28.586 45.0996 28.6187 45.193 28.684C45.2863 28.7493 45.3983 28.8217 45.529 28.901C45.6643 28.9803 45.8276 29.0527 46.019 29.118C46.2103 29.1833 46.4483 29.216 46.733 29.216C46.9756 29.216 47.188 29.1857 47.37 29.125C47.552 29.0597 47.7036 28.9733 47.825 28.866C47.9463 28.7587 48.035 28.635 48.091 28.495C48.1516 28.355 48.182 28.2057 48.182 28.047C48.182 27.851 48.1283 27.69 48.021 27.564C47.9183 27.4333 47.7806 27.3237 47.608 27.235C47.4353 27.1417 47.237 27.0623 47.013 26.997C46.7936 26.927 46.5673 26.8547 46.334 26.78C46.1053 26.7053 45.879 26.6213 45.655 26.528C45.4356 26.43 45.2396 26.3087 45.067 26.164C44.8943 26.0193 44.7543 25.842 44.647 25.632C44.5443 25.4173 44.493 25.1583 44.493 24.855C44.493 24.5843 44.549 24.3253 44.661 24.078C44.773 23.826 44.9363 23.6067 45.151 23.42C45.3656 23.2287 45.6293 23.077 45.942 22.965C46.2546 22.853 46.6116 22.797 47.013 22.797C47.4796 22.797 47.8973 22.8717 48.266 23.021C48.6393 23.1657 48.9613 23.3663 49.232 23.623L48.952 24.078ZM55.8136 24.169C55.7763 24.2203 55.7389 24.26 55.7016 24.288C55.6643 24.316 55.6129 24.33 55.5476 24.33C55.4776 24.33 55.4006 24.302 55.3166 24.246C55.2326 24.1853 55.1276 24.12 55.0016 24.05C54.8803 23.98 54.7286 23.917 54.5466 23.861C54.3693 23.8003 54.1499 23.77 53.8886 23.77C53.5386 23.77 53.2306 23.833 52.9646 23.959C52.6986 24.0803 52.4746 24.2577 52.2926 24.491C52.1153 24.7243 51.9799 25.0067 51.8866 25.338C51.7979 25.6693 51.7536 26.0403 51.7536 26.451C51.7536 26.8803 51.8026 27.263 51.9006 27.599C51.9986 27.9303 52.1363 28.2103 52.3136 28.439C52.4956 28.663 52.7126 28.8357 52.9646 28.957C53.2213 29.0737 53.5083 29.132 53.8256 29.132C54.1289 29.132 54.3786 29.097 54.5746 29.027C54.7706 28.9523 54.9316 28.8707 55.0576 28.782C55.1883 28.6933 55.2956 28.614 55.3796 28.544C55.4683 28.4693 55.5546 28.432 55.6386 28.432C55.7413 28.432 55.8206 28.4717 55.8766 28.551L56.2266 29.006C56.0726 29.1973 55.8976 29.3607 55.7016 29.496C55.5056 29.6313 55.2933 29.7457 55.0646 29.839C54.8406 29.9277 54.6049 29.993 54.3576 30.035C54.1103 30.077 53.8583 30.098 53.6016 30.098C53.1583 30.098 52.7453 30.0163 52.3626 29.853C51.9846 29.6897 51.6556 29.454 51.3756 29.146C51.0956 28.8333 50.8763 28.4507 50.7176 27.998C50.5589 27.5453 50.4796 27.0297 50.4796 26.451C50.4796 25.9237 50.5519 25.436 50.6966 24.988C50.8459 24.54 51.0606 24.155 51.3406 23.833C51.6253 23.5063 51.9729 23.252 52.3836 23.07C52.7989 22.888 53.2749 22.797 53.8116 22.797C54.3109 22.797 54.7496 22.8787 55.1276 23.042C55.5103 23.2007 55.8486 23.427 56.1426 23.721L55.8136 24.169ZM58.7471 24.33C58.9711 23.8447 59.2465 23.4667 59.5731 23.196C59.8998 22.9207 60.2988 22.783 60.7701 22.783C60.9195 22.783 61.0618 22.7993 61.1971 22.832C61.3371 22.8647 61.4608 22.916 61.5681 22.986L61.4771 23.917C61.4491 24.0337 61.3791 24.092 61.2671 24.092C61.2018 24.092 61.1061 24.078 60.9801 24.05C60.8541 24.022 60.7118 24.008 60.5531 24.008C60.3291 24.008 60.1285 24.0407 59.9511 24.106C59.7785 24.1713 59.6221 24.2693 59.4821 24.4C59.3468 24.526 59.2231 24.6847 59.1111 24.876C59.0038 25.0627 58.9058 25.2773 58.8171 25.52V30H57.5641V22.909H58.2781C58.4135 22.909 58.5068 22.9347 58.5581 22.986C58.6095 23.0373 58.6445 23.126 58.6631 23.252L58.7471 24.33ZM63.9798 22.909V30H62.7338V22.909H63.9798ZM64.2458 20.683C64.2458 20.8043 64.2201 20.9187 64.1688 21.026C64.1221 21.1287 64.0568 21.222 63.9728 21.306C63.8934 21.3853 63.7978 21.4483 63.6858 21.495C63.5784 21.5417 63.4641 21.565 63.3428 21.565C63.2214 21.565 63.1071 21.5417 62.9998 21.495C62.8971 21.4483 62.8061 21.3853 62.7268 21.306C62.6474 21.222 62.5844 21.1287 62.5378 21.026C62.4911 20.9187 62.4678 20.8043 62.4678 20.683C62.4678 20.5617 62.4911 20.4473 62.5378 20.34C62.5844 20.228 62.6474 20.1323 62.7268 20.053C62.8061 19.969 62.8971 19.9037 62.9998 19.857C63.1071 19.8103 63.2214 19.787 63.3428 19.787C63.4641 19.787 63.5784 19.8103 63.6858 19.857C63.7978 19.9037 63.8934 19.969 63.9728 20.053C64.0568 20.1323 64.1221 20.228 64.1688 20.34C64.2201 20.4473 64.2458 20.5617 64.2458 20.683ZM67.28 28.292C67.5087 28.6 67.7584 28.817 68.029 28.943C68.3044 29.069 68.6054 29.132 68.932 29.132C69.5994 29.132 70.1104 28.8963 70.465 28.425C70.8197 27.9537 70.997 27.2513 70.997 26.318C70.997 25.45 70.8384 24.813 70.521 24.407C70.2084 23.9963 69.7604 23.791 69.177 23.791C68.771 23.791 68.4164 23.8843 68.113 24.071C67.8144 24.2577 67.5367 24.5213 67.28 24.862V28.292ZM67.28 23.931C67.5787 23.5857 67.9147 23.3103 68.288 23.105C68.666 22.8997 69.1 22.797 69.59 22.797C70.0054 22.797 70.3787 22.8763 70.71 23.035C71.046 23.1937 71.3307 23.4247 71.564 23.728C71.7974 24.0267 71.9747 24.3907 72.096 24.82C72.222 25.2493 72.285 25.7323 72.285 26.269C72.285 26.843 72.215 27.3657 72.075 27.837C71.935 28.3083 71.732 28.712 71.466 29.048C71.2047 29.3793 70.885 29.6383 70.507 29.825C70.129 30.007 69.7044 30.098 69.233 30.098C68.7664 30.098 68.372 30.0117 68.05 29.839C67.7327 29.6617 67.455 29.412 67.217 29.09L67.154 29.734C67.1167 29.9113 67.0094 30 66.832 30H66.027V19.689H67.28V23.931ZM78.607 25.681C78.607 25.3917 78.565 25.128 78.481 24.89C78.4017 24.6473 78.2827 24.4397 78.124 24.267C77.97 24.0897 77.781 23.9543 77.557 23.861C77.333 23.763 77.0787 23.714 76.794 23.714C76.1967 23.714 75.723 23.889 75.373 24.239C75.0277 24.5843 74.813 25.065 74.729 25.681H78.607ZM79.615 29.006C79.461 29.1927 79.2767 29.356 79.062 29.496C78.8474 29.6313 78.6164 29.7433 78.369 29.832C78.1264 29.9207 77.8744 29.986 77.613 30.028C77.3517 30.0747 77.0927 30.098 76.836 30.098C76.346 30.098 75.8934 30.0163 75.478 29.853C75.0674 29.685 74.7104 29.4423 74.407 29.125C74.1084 28.803 73.875 28.4063 73.707 27.935C73.539 27.4637 73.455 26.9223 73.455 26.311C73.455 25.8163 73.5297 25.3543 73.679 24.925C73.833 24.4957 74.0524 24.1247 74.337 23.812C74.6217 23.4947 74.9694 23.2473 75.38 23.07C75.7907 22.888 76.2527 22.797 76.766 22.797C77.1907 22.797 77.5827 22.8693 77.942 23.014C78.306 23.154 78.6187 23.3593 78.88 23.63C79.146 23.896 79.3537 24.2273 79.503 24.624C79.6524 25.016 79.727 25.464 79.727 25.968C79.727 26.164 79.706 26.2947 79.664 26.36C79.622 26.4253 79.5427 26.458 79.426 26.458H74.687C74.701 26.906 74.7617 27.2957 74.869 27.627C74.981 27.9583 75.135 28.236 75.331 28.46C75.527 28.6793 75.7604 28.845 76.031 28.957C76.3017 29.0643 76.605 29.118 76.941 29.118C77.2537 29.118 77.522 29.083 77.746 29.013C77.9747 28.9383 78.1707 28.859 78.334 28.775C78.4974 28.691 78.6327 28.614 78.74 28.544C78.852 28.4693 78.9477 28.432 79.027 28.432C79.1297 28.432 79.209 28.4717 79.265 28.551L79.615 29.006Z" fill="white"/>
</svg>
